<svg width="20" height="20" viewBox="0 0 20 20" fill="none" xmlns="http://www.w3.org/2000/svg">
<g id="facebook-logo" clip-path="url(#clip0_5864_12097)">
<path id="Vector" d="M10 0C10.918 0 11.8034 0.117878 12.6562 0.353635C13.5091 0.589391 14.3034 0.929928 15.0391 1.37525C15.7747 1.82056 16.4486 2.34447 17.0605 2.94695C17.6725 3.54944 18.1966 4.22724 18.6328 4.98035C19.069 5.73346 19.4043 6.53569 19.6387 7.38703C19.873 8.23838 19.9935 9.12901 20 10.0589C20 10.8841 19.9056 11.683 19.7168 12.4558C19.528 13.2286 19.2546 13.9653 18.8965 14.666C18.5384 15.3667 18.1087 16.0085 17.6074 16.5914C17.1061 17.1742 16.5397 17.7014 15.9082 18.1729C15.2767 18.6444 14.5996 19.0308 13.877 19.332C13.1543 19.6333 12.3828 19.8559 11.5625 20V12.9666H13.8965L14.3359 10.0589H11.5625V8.17289C11.5625 7.8127 11.6211 7.52783 11.7383 7.31827C11.8555 7.10871 12.0117 6.95154 12.207 6.84676C12.4023 6.74198 12.6237 6.67322 12.8711 6.64047C13.1185 6.60773 13.3757 6.59136 13.6426 6.59136H14.0527C14.1895 6.59136 14.3229 6.59463 14.4531 6.60118V4.12574C14.0885 4.06025 13.7174 4.01113 13.3398 3.97839C12.9622 3.94565 12.5879 3.92927 12.2168 3.92927C11.6113 3.92927 11.0742 4.02096 10.6055 4.20432C10.1367 4.38769 9.74284 4.64964 9.42383 4.99018C9.10482 5.33071 8.86068 5.74001 8.69141 6.21807C8.52214 6.69614 8.4375 7.23641 8.4375 7.8389V10.0589H5.89844V12.9666H8.4375V20C7.6237 19.8756 6.85221 19.6562 6.12305 19.3418C5.39388 19.0275 4.7168 18.6411 4.0918 18.1827C3.4668 17.7243 2.90365 17.1971 2.40234 16.6012C1.90104 16.0052 1.47135 15.3602 1.11328 14.666C0.755208 13.9718 0.481771 13.2384 0.292969 12.4656C0.104167 11.6929 0.00651042 10.8906 0 10.0589C0 9.13556 0.117188 8.24492 0.351562 7.38703C0.585938 6.52914 0.924479 5.73019 1.36719 4.99018C1.8099 4.25016 2.33073 3.57236 2.92969 2.95678C3.52865 2.34119 4.20247 1.81401 4.95117 1.37525C5.69987 0.936477 6.4974 0.599214 7.34375 0.363458C8.1901 0.127701 9.07552 0.00654879 10 0Z" fill="white"/>
</g>
<defs>
<clipPath id="clip0_5864_12097">
<rect width="20" height="20" fill="white"/>
</clipPath>
</defs>
</svg>
