<svg width="29" height="29" viewBox="0 0 29 29" fill="none" xmlns="http://www.w3.org/2000/svg">
<g clip-path="url(#clip0_8562_19170)">
<path d="M21.6264 9.74891V6.36669C22.0733 6.1578 22.4518 5.82625 22.7176 5.41064C22.9835 4.99504 23.1258 4.51247 23.1281 4.01911V3.94151C23.1281 2.50304 21.962 1.33692 20.5236 1.33692H20.4459C19.0074 1.33692 17.8413 2.50304 17.8413 3.94151V4.01911C17.8436 4.51247 17.986 4.99504 18.2518 5.41064C18.5177 5.82625 18.8961 6.1578 19.3431 6.36669V9.74891C18.0585 9.94564 16.8487 10.4783 15.8361 11.293L6.5602 4.06794C6.62634 3.82917 6.66084 3.58364 6.66474 3.33719C6.66587 2.75672 6.49483 2.18895 6.17324 1.70571C5.85165 1.22247 5.39397 0.845453 4.85808 0.622359C4.3222 0.399266 3.73218 0.340114 3.16268 0.452388C2.59317 0.564661 2.06975 0.843315 1.65864 1.2531C1.24752 1.66289 0.967167 2.1854 0.853047 2.75454C0.738928 3.32368 0.796165 3.91388 1.01752 4.45048C1.23887 4.98709 1.6144 5.44599 2.0966 5.76915C2.5788 6.0923 3.146 6.26519 3.72647 6.26594C4.23428 6.26354 4.73257 6.12797 5.17159 5.87276L14.3057 12.9805C12.6264 15.5174 12.6714 18.8236 14.4189 21.314L11.6407 24.0929C11.4161 24.0212 11.1822 23.983 10.9464 23.9798C9.61596 23.9809 8.53811 25.0599 8.53845 26.3904C8.53879 27.7208 9.61733 28.7992 10.9477 28.7996C12.2782 28.7999 13.3572 27.722 13.3583 26.3916C13.3552 26.1558 13.317 25.9219 13.2451 25.6974L15.9934 22.948C18.4491 24.8385 21.8218 25.0013 24.4483 23.3563C27.0746 21.7112 28.4001 18.6054 27.7708 15.571C27.1415 12.5364 24.6904 10.2141 21.6264 9.74891ZM20.4872 20.8728C19.9794 20.8864 19.4741 20.7982 19.001 20.6134C18.5279 20.4285 18.0967 20.1507 17.7327 19.7964C17.3688 19.4421 17.0795 19.0185 16.882 18.5506C16.6845 18.0826 16.5827 17.5799 16.5827 17.0719C16.5827 16.564 16.6845 16.0612 16.882 15.5933C17.0795 15.1254 17.3688 14.7017 17.7327 14.3474C18.0967 13.9932 18.5279 13.7154 19.001 13.5305C19.4741 13.3456 19.9794 13.2574 20.4872 13.2711C22.5333 13.3427 24.1553 15.0217 24.1564 17.0692C24.1574 19.1164 22.5371 20.7971 20.491 20.8708" fill="#FF7A59"/>
</g>
<defs>
<clipPath id="clip0_8562_19170">
<rect width="28.8" height="28.8" fill="white"/>
</clipPath>
</defs>
</svg>
