<svg xmlns="http://www.w3.org/2000/svg" viewBox="0 0 512 512"><path fill="#FF7A59" d="M473.4 204.6c-13.8 0-26.6 6.1-35.4 16.7l-41.1-23.7c1.3-6.6 2-13.4 2-20.3 0-56.1-45.5-101.6-101.6-101.6S195.7 121.2 195.7 177.3c0 10.7 1.7 21 4.7 30.6l-29.5 17c-8.8-10.6-21.7-16.7-35.4-16.7-25.5 0-46.1 20.6-46.1 46.1 0 25.5 20.6 46.1 46.1 46.1 13.8 0 26.6-6.1 35.4-16.7l29.5 17c-3 9.6-4.7 19.9-4.7 30.6 0 56.1 45.5 101.6 101.6 101.6s101.6-45.5 101.6-101.6c0-6.9-.7-13.7-2-20.3l41.1-23.7c8.8 10.6 21.7 16.7 35.4 16.7 25.5 0 46.1-20.6 46.1-46.1 0-25.4-20.6-46.1-46.1-46.1zM301.1 391.8c-30.7 0-55.5-24.8-55.5-55.5s24.8-55.5 55.5-55.5 55.5 24.8 55.5 55.5-24.8 55.5-55.5 55.5zm0-213.4c-30.7 0-55.5-24.8-55.5-55.5s24.8-55.5 55.5-55.5 55.5 24.8 55.5 55.5-24.8 55.5-55.5 55.5z"/></svg>
