<svg width="20" height="20" viewBox="0 0 20 20" fill="none" xmlns="http://www.w3.org/2000/svg">
<g id="Location">
<path id="Vector" d="M16.6654 8.33329C16.6654 13.3333 9.9987 18.3333 9.9987 18.3333C9.9987 18.3333 3.33203 13.3333 3.33203 8.33329C3.33203 6.56518 4.03441 4.86949 5.28465 3.61925C6.5349 2.36901 8.23059 1.66663 9.9987 1.66663C11.7668 1.66663 13.4625 2.36901 14.7127 3.61925C15.963 4.86949 16.6654 6.56518 16.6654 8.33329Z" stroke="#273F2B" stroke-width="1.5" stroke-linecap="round" stroke-linejoin="round"/>
<path id="Vector_2" d="M10 10.8334C11.3807 10.8334 12.5 9.71409 12.5 8.33337C12.5 6.95266 11.3807 5.83337 10 5.83337C8.61929 5.83337 7.5 6.95266 7.5 8.33337C7.5 9.71409 8.61929 10.8334 10 10.8334Z" stroke="#273F2B" stroke-width="1.5" stroke-linecap="round" stroke-linejoin="round"/>
</g>
</svg>
