<svg width="20" height="20" viewBox="0 0 20 20" fill="none" xmlns="http://www.w3.org/2000/svg">
<g id="youtube-logo">
<path id="Vector" d="M19.5817 5.18658C19.4687 4.76374 19.2459 4.37782 18.9355 4.06746C18.6252 3.7571 18.2382 3.53319 17.8133 3.41816C16.2542 3.00006 10 3.00006 10 3.00006C10 3.00006 3.74583 3.00006 2.18583 3.41816C1.76117 3.53339 1.37441 3.75738 1.06423 4.06772C0.754051 4.37806 0.531326 4.76388 0.418333 5.18658C0 6.74636 0 10.0001 0 10.0001C0 10.0001 0 13.2538 0.418333 14.8135C0.531322 15.2364 0.754146 15.6223 1.06449 15.9327C1.37484 16.243 1.76181 16.4669 2.18667 16.582C3.74583 17.0001 10 17.0001 10 17.0001C10 17.0001 16.2542 17.0001 17.8142 16.582C18.2391 16.467 18.6261 16.2431 18.9364 15.9328C19.2468 15.6224 19.4696 15.2364 19.5825 14.8135C20 13.2538 20 10.0001 20 10.0001C20 10.0001 20 6.74636 19.5817 5.18658ZM7.95417 12.9541V7.04607L13.1817 10.0001L7.95417 12.9541Z" fill="white"/>
</g>
</svg>
